# xmcd
#
# Track frame offsets: 
#        150
#        20481
#        37594
#        54255
#        72197
#        109456
#        134726
#        156920
#        169250
#        185837
#        203916
#
# Disc length: 2985 seconds
#
# Revision: 0
# Processed by: cddbd v1.5.2PL0 Copyright (c) Steve Scherf et al.
# Submitted via: ExactAudioCopy v0.99pb5
#
DISCID=9d0ba70b
DTITLE=Ted Crook and the Blues Highway - The Blues Highway
DYEAR=2010
DGENRE=Blues
TTITLE0=Pretty Baby
TTITLE1=Kansas City
TTITLE2=Lock on the Door
TTITLE3=Mystery Train
TTITLE4=The Outskirts Of Town
TTITLE5=On the Road Again
TTITLE6=Somebody
TTITLE7=Caldonia
TTITLE8=Real Gone Lover
TTITLE9=Smokestack Lightning
TTITLE10=Annalee
EXTD=
EXTT0=
EXTT1=
EXTT2=
EXTT3=
EXTT4=
EXTT5=
EXTT6=
EXTT7=
EXTT8=
EXTT9=
EXTT10=
PLAYORDER=
